<svg xmlns="http://www.w3.org/2000/svg" viewBox="00 0 300 438" width="300" height="300" aria-hidden="true">
	<g fill-rule="evenodd">
		<path d="M148 137c82 0 149 67 149 149 0 81-67 148-149 148S0 367 0 286c0-82 66-149 148-149zM36 55C36 29 56 0 95 0h110c36 0 55 31 55 54v35l-35-1V56c0-12-10-21-20-21H91c-11 0-20 9-20 19 1 11 0 83 0 83s-9 5-17 11-17 14-17 14-1-80-1-107zm-2 231c0 62 51 113 114 113s114-51 114-113c0-63-51-114-114-114S34 223 34 286zm114-89c49 0 89 40 89 89 0 48-40 88-89 88-48 0-88-40-88-88 0-49 40-89 88-89zm-30 69c0 10 5 20 13 25v44h35v-44c7-5 13-15 13-25 0-17-14-30-31-30-16 0-30 13-30 30z" fill="#fff" />
	</g>
</svg>
